<?xml version="1.0" encoding="utf-8"?>
<!-- Generator: Adobe Illustrator 16.0.0, SVG Export Plug-In . SVG Version: 6.00 Build 0)  -->
<!DOCTYPE svg PUBLIC "-//W3C//DTD SVG 1.1//EN" "http://www.w3.org/Graphics/SVG/1.1/DTD/svg11.dtd">
<svg version="1.1" id="Layer_1" xmlns="http://www.w3.org/2000/svg" xmlns:xlink="http://www.w3.org/1999/xlink" x="0px" y="0px"
	 width="74.508px" height="70.268px" viewBox="0 0 74.508 70.268" style="enable-background:new 0 0 74.508 70.268;"
	 xml:space="preserve">
<path style="fill:#9AE600;" d="M74.508,0H56.884l-2.716,3.176h-4.233L47.269,0H0.176v55.58h74.333V0z M34.685,18.799h-8.846V6.008
	h-6.674V26.22h9.986v1.204h-9.986v22.849h2.768v1.204H7.496v-1.204h2.768V6.008H7.496V4.804h27.189V18.799z M65.726,6.008
	L47.493,50.273h9.443V37.482h8.193v13.996H38.592v-1.204L56.826,6.008h-9.441V18.8h-8.248V4.804h26.59V6.008z"/>
<polygon style="fill:#9AE600;" points="0,70.078 1.25,70.078 1.25,65.33 5.237,65.33 5.237,64.224 1.25,64.224 1.25,60.632 
	5.554,60.632 5.554,59.523 0,59.523 "/>
<rect x="6.864" y="59.523" style="fill:#9AE600;" width="1.25" height="10.556"/>
<polygon style="fill:#9AE600;" points="11.325,59.523 10.074,59.523 10.074,70.078 15.66,70.078 15.66,68.97 11.325,68.97 "/>
<path style="fill:#9AE600;" d="M21.701,66.169c-0.253,1.013-0.396,1.614-0.506,2.216c-0.031-0.253-0.079-0.442-0.126-0.586
	l-0.238-0.965l-0.206-0.743l-1.772-6.567h-1.915v10.556h1.155v-6.867c0-0.603-0.016-1.125-0.063-2.343
	c0.189,0.713,0.364,1.377,0.601,2.185l1.994,7.025h1.076l1.931-6.867c0.159-0.57,0.348-1.268,0.379-1.394
	c0.048-0.206,0.096-0.411,0.143-0.602c0.016-0.048,0.047-0.174,0.095-0.349c-0.032,0.49-0.063,1.614-0.063,2.343v6.867h1.155V59.523
	h-1.899L21.701,66.169z"/>
<path style="fill:#9AE600;" d="M30.352,59.334c-1.203,0-2.12,0.507-2.674,1.486c-0.443,0.775-0.681,2.185-0.681,3.973
	c0,1.613,0.206,2.975,0.554,3.733c0.522,1.14,1.503,1.74,2.801,1.74c1.187,0,2.104-0.506,2.659-1.487
	c0.443-0.774,0.68-2.168,0.68-3.924c0-1.678-0.19-3.007-0.554-3.798C32.615,59.935,31.649,59.334,30.352,59.334z M30.352,69.207
	c-1.503,0-2.104-1.266-2.104-4.414c0-3.133,0.601-4.399,2.104-4.399s2.089,1.251,2.089,4.447
	C32.441,67.942,31.824,69.207,30.352,69.207z"/>
<polygon style="fill:#9AE600;" points="41.124,60.6 41.124,59.523 35.206,59.523 35.206,60.632 39.684,60.632 34.684,69.191 
	34.684,70.078 41.25,70.078 41.25,68.97 36.171,68.97 "/>
<polygon style="fill:#9AE600;" points="37.278,56.833 36.013,56.833 37.311,58.163 38.782,58.163 40.064,56.833 38.831,56.833 
	38.054,57.72 "/>
<path style="fill:#9AE600;" d="M48.542,67.15c0-0.695-0.158-1.345-0.412-1.709c-0.252-0.332-0.569-0.507-1.233-0.665
	c1.14-0.379,1.661-1.17,1.661-2.515c0-0.871-0.253-1.6-0.729-2.073c-0.459-0.459-1.107-0.665-2.184-0.665h-2.959v10.556h1.25V65.3
	h1.393c1.519,0,1.979,0.474,1.979,2.041v0.981c0,0.601,0.095,1.17,0.3,1.756h1.472c-0.379-0.477-0.539-0.966-0.539-1.756V67.15
	H48.542z M45.567,64.303h-1.63v-3.782h1.63c1.17,0,1.741,0.617,1.741,1.883C47.308,63.686,46.737,64.303,45.567,64.303z"/>
<path style="fill:#9AE600;" d="M53.491,59.334c-1.203,0-2.121,0.507-2.674,1.486c-0.443,0.775-0.681,2.185-0.681,3.973
	c0,1.613,0.206,2.975,0.554,3.733c0.521,1.14,1.503,1.74,2.801,1.74c1.188,0,2.104-0.506,2.658-1.487
	c0.443-0.774,0.682-2.168,0.682-3.924c0-1.678-0.19-3.007-0.555-3.798C55.752,59.935,54.788,59.334,53.491,59.334z M53.491,69.207
	c-1.503,0-2.104-1.266-2.104-4.414c0-3.133,0.601-4.399,2.104-4.399c1.504,0,2.09,1.251,2.09,4.447
	C55.581,67.942,54.961,69.207,53.491,69.207z"/>
<path style="fill:#9AE600;" d="M63.329,66.708c0,1.091-0.111,1.565-0.442,1.944c-0.285,0.35-0.791,0.555-1.345,0.555
	s-1.061-0.205-1.346-0.555c-0.332-0.379-0.443-0.869-0.443-1.944v-7.186h-1.25v7.073c0,1.266,0.16,1.963,0.586,2.548
	c0.507,0.712,1.408,1.123,2.453,1.123c1.043,0,1.946-0.411,2.453-1.123c0.426-0.585,0.584-1.282,0.584-2.548v-7.073h-1.25V66.708z"
	/>
<polygon style="fill:#9AE600;" points="65.667,60.584 68.31,60.584 68.31,70.078 69.56,70.078 69.56,60.584 72.187,60.584 
	72.187,59.523 65.667,59.523 "/>
<rect x="73.258" y="59.523" style="fill:#9AE600;" width="1.25" height="10.556"/>
</svg>
